<svg enable-background="new 0 0 260 160" viewBox="0 0 260 160" xmlns="http://www.w3.org/2000/svg"><g fill="none"><path d="m59 60.7c22 0 36 11.4 43.5 19.9v-23.3c-3.8-3.2-20.2-15.9-43.5-15.9-23.6 0-39.8 12.7-43.5 15.9v23.4c7.4-8.6 21.5-20 43.5-20z"/><path d="m102.4 38v-22.3h-86.9v22.3c9.6-5.8 24.6-12.4 43.5-12.4s33.8 6.6 43.4 12.4z"/><path d="m59 125.7c-22 0-36-11.4-43.5-19.9v38.8h86.9v-38.8c-7.4 8.5-21.4 19.9-43.4 19.9z"/></g><path d="m64.9 75.8c-1.9-.3-3.9-.4-6-.4-19.2 0-30.4 11.8-34.8 17.8 4.4 6 15.5 17.8 34.8 17.8 2.1 0 4.1-.1 6-.4-5.2-4-8.6-10.3-8.6-17.4s3.4-13.4 8.6-17.4z" fill="#fff"/><path d="m-.2 0v160.2h118.3v-160.2zm15.7 15.7h86.9v22.3c-9.6-5.8-24.5-12.3-43.4-12.3s-33.9 6.5-43.5 12.3zm49.4 94.9c-1.9.3-3.9.4-6 .4-19.3 0-30.4-11.8-34.8-17.8 4.4-6 15.5-17.8 34.8-17.8 2.1 0 4.1.1 6 .4-5.2 4-8.6 10.3-8.6 17.4s3.4 13.4 8.6 17.4zm-49.4-53.3c3.7-3.2 19.8-15.9 43.5-15.9 23.4 0 39.7 12.7 43.5 15.9v23.4c-7.5-8.6-21.5-20-43.5-20s-36 11.4-43.5 19.9zm86.9 87.2h-86.9v-38.8c7.4 8.5 21.4 19.9 43.5 19.9s36-11.4 43.5-19.9v38.8z"/><path d="m178.3 21.7h-8.1v12.9h-7v-12.9h-8.1v-5.9h23.2z"/><path d="m216.5 28.7v5.9h-19.4v-18.9h7v12.9h12.4z"/><path d="m260 25.2c0 6.4-4.3 9.4-8.8 9.4h-14v-18.9h14c4.5 0 8.8 3 8.8 9.5zm-7 0c0-3.5-2.5-3.5-4-3.5h-4.9v7h4.9c1.5 0 4 0 4-3.5z"/><path d="m155.1 61.8c0-6.6 3.6-9.7 11.9-9.7s11.9 3.2 11.9 9.7c0 6.6-3.6 9.7-11.9 9.7s-11.9-3.2-11.9-9.7zm16.7 0c0-2-.7-3.7-4.9-3.7s-4.9 1.8-4.9 3.7c0 2 .7 3.8 4.9 3.8s4.9-1.8 4.9-3.8z"/><path d="m220.6 65.7c0 3.1-1.9 5.6-6.1 5.6h-17.3v-18.9h16.5c4.3 0 5.6 1.9 5.6 4.8 0 1.2-.6 2.5-1.5 3.5 1.6 1.2 2.8 2.9 2.8 5zm-16.4-6.7h6.5c.7 0 1.6 0 1.6-1s-.9-1-1.6-1h-6.5zm9.4 6.1c0-1-.9-1-1.6-1h-7.8v2h7.8c.7 0 1.6 0 1.6-1z"/><path d="m242.8 64.6c0 .9.9 1.5 5.3 1.5 4.2 0 4.8-.3 4.8-1 0-.8-.6-.9-5-1.1-8.5-.3-11.8-1.7-11.8-6.1 0-4.2 4.1-5.9 11.5-5.9s11.5 1.8 11.5 6.6h-7c0-1-1.6-1.2-5-1.2-3.3 0-4 .2-4 .9s.7.7 4.8.9c7.4.3 12.1.8 12.1 5.7 0 5.2-4.3 6.5-12.1 6.5s-12.1-1.3-12.1-6.9h7z"/><path d="m162.3 94.4v1.8h12.9v4.6h-12.9v1.8h12.9v5.4h-20v-19h20v5.4z"/><path d="m215.9 102.4 3.3 5.4h-8.3l-2.6-4.4h-4.1v4.4h-7v-18.8h14.8c4.3 0 7.2 3 7.2 7.2 0 2.8-1.3 5-3.3 6.2zm-11.7-4.9h6.5c.7 0 1.6 0 1.6-1.3s-.9-1.3-1.6-1.3h-6.5z"/><path d="m260 89-7.8 18.9h-10.4l-7.9-18.9h7.7l5.3 14 5.3-14z"/><path d="m162.3 131v1.8h12.9v4.6h-12.9v1.8h12.9v5.4h-20v-18.9h20v5.4h-12.9z"/><path d="m215.9 139.1 3.3 5.4h-8.3l-2.6-4.4h-4.1v4.4h-7v-18.9h14.8c4.3 0 7.2 3 7.2 7.2 0 2.8-1.3 5.1-3.3 6.3zm-11.7-5h6.5c.7 0 1.6 0 1.6-1.3s-.9-1.3-1.6-1.3h-6.5z"/></svg>