<svg xmlns="http://www.w3.org/2000/svg" viewBox="0 0 248.48 153"><defs><style>.cls-1{fill:#f7ef80}.cls-2{fill:none}</style></defs><g id="Layer_2" data-name="Layer 2"><g id="logo"><g id="mono"><g id="separate_pupil" data-name="separate pupil"><path class="cls-1" d="M56.5 58A54 54 0 0 1 98 77V54.69C94.41 51.63 78.8 39.5 56.5 39.5A65.65 65.65 0 0 0 15 54.68V77a54 54 0 0 1 41.5-19zM98 36.3V15H15v21.3a80.2 80.2 0 0 1 41.5-11.8A80.2 80.2 0 0 1 98 36.3zm0 64.7a54 54 0 0 1-41.5 19A54 54 0 0 1 15 101v37h83z"/><path class="cls-2" d="M98 77V54.69C94.41 51.63 78.8 39.5 56.5 39.5A65.65 65.65 0 0 0 15 54.68V77a54 54 0 0 1 41.5-19A54 54 0 0 1 98 77z"/><path class="cls-2" d="M23.31 89a40.9 40.9 0 0 0 66.38 0 40.9 40.9 0 0 0-66.38 0zM15 36.3a80.2 80.2 0 0 1 41.5-11.8A80.2 80.2 0 0 1 98 36.3V15H15z"/><path class="cls-2" d="M15 138h83v-37a54 54 0 0 1-41.5 19A54 54 0 0 1 15 101z"/><path d="M0 0v153h113V0zm56.5 58A54 54 0 0 0 15 77V54.68A65.65 65.65 0 0 1 56.5 39.5c22.3 0 37.91 12.13 41.5 15.19V77a54 54 0 0 0-41.5-19zm33.19 31a40.9 40.9 0 0 1-66.38 0 40.9 40.9 0 0 1 66.38 0zM56.5 120A54 54 0 0 0 98 101v37H15v-37a54 54 0 0 0 41.5 19zM98 36.3a80.2 80.2 0 0 0-41.5-11.8A80.2 80.2 0 0 0 15 36.3V15h83z"/></g></g><g id="text"><path d="M170.48 20.68h-7.73v12.37h-6.69V20.68h-7.73V15h22.15zm36.52 6.7v5.67h-18.57V15h6.69v12.38zM248.48 24c0 6.13-4.09 9-8.44 9h-13.4V15H240c4.39 0 8.48 2.9 8.48 9zm-6.69 0c0-3.35-2.37-3.35-3.81-3.35h-4.64v6.7H238c1.42.03 3.79.03 3.79-3.35zm-93.46 35c0-6.26 3.4-9.25 11.33-9.25S171 52.75 171 59s-3.43 9.3-11.34 9.3-11.33-3.03-11.33-9.3zm16 0c0-1.88-.67-3.58-4.64-3.58S155 57.08 155 59s.69 3.63 4.63 3.63 4.67-1.74 4.67-3.63zm46.55 3.7c0 3-1.78 5.33-5.87 5.33h-16.49V50h15.71c4.1 0 5.36 1.85 5.36 4.58a5.35 5.35 0 0 1-1.42 3.42 5.91 5.91 0 0 1 2.71 4.7zm-15.66-6.37h6.18c.67 0 1.49 0 1.49-1s-.82-1-1.49-1h-6.18zm9 5.85c0-1-.82-1-1.49-1h-7.47v1.9h7.47c.63.05 1.45.05 1.45-.9zm27.86-.51c0 .87.83 1.46 5.08 1.46 4 0 4.56-.25 4.56-.92s-.6-.88-4.82-1c-8.14-.26-11.26-1.59-11.26-5.79 0-4 3.89-5.67 11-5.67s11 1.7 11 6.31h-6.7c0-.95-1.54-1.16-4.81-1.16s-3.79.16-3.79.85.64.67 4.56.83c7.11.28 11.51.77 11.51 5.48 0 5-4.12 6.24-11.51 6.24s-11.51-1.3-11.51-6.63zm-76.91 28.46v1.67h12.36v4.38h-12.36v1.68h12.36V103h-19.06V85h19.06v5.15zm51.16 7.7l3.19 5.18h-7.93l-2.5-4.23h-3.94V103h-6.69V85h14.16a6.6 6.6 0 0 1 6.9 6.9 6.68 6.68 0 0 1-3.19 5.93zm-11.18-4.71h6.18c.67 0 1.5 0 1.5-1.24s-.83-1.24-1.5-1.24h-6.18zM248.44 85L241 103h-10l-7.47-18h7.37l5.1 13.37L241.07 85zm-93.27 40.11v1.67h12.36v4.38h-12.36v1.68h12.36V138h-19.06v-18h19.06v5.15zm51.16 7.7l3.19 5.18h-7.93l-2.5-4.23h-3.94V138h-6.69v-18h14.16a6.6 6.6 0 0 1 6.9 6.9 6.68 6.68 0 0 1-3.19 5.91zm-11.18-4.71h6.18c.67 0 1.5 0 1.5-1.24s-.83-1.24-1.5-1.24h-6.18z"/></g></g></g></svg>